<svg xmlns="http://www.w3.org/2000/svg" xmlns:xlink="http://www.w3.org/1999/xlink" width="742.51" height="682.567" viewBox="0 0 742.51 682.567"><defs><linearGradient id="a" x1="0.487" y1="-0.392" x2="0.5" y2="1.254" gradientUnits="objectBoundingBox"><stop offset="0" stop-color="#e0e8ff" stop-opacity="0"/><stop offset="0.845" stop-color="#c7d4ff" stop-opacity="0.847"/><stop offset="1" stop-color="#c9d6fd"/></linearGradient></defs><g transform="translate(-3635.4 -941.815)"><g transform="translate(3783 1030)"><path d="M1829.667,602A128,128,0,0,0,1702,474v0a128,128,0,0,0-256,0v0c-.111,0-.222,0-.333,0a128,128,0,1,0,0,256q1.671,0,3.333-.043V730h256v-.043A128,128,0,0,0,1829.667,602Z" transform="translate(-1309.758 -325)" fill="#f7f9ff"/><path d="M6061.718-842a108.929,108.929,0,0,0-89.612-54.451,109.015,109.015,0,0,0-113.751,104.06" transform="translate(-5858.355 1046.963)" fill="none" stroke="#fff" stroke-linecap="round" stroke-linejoin="round" stroke-width="8" opacity="0.522"/><path d="M94.242,0c52.048,0,94.242,40.965,94.242,91.5S146.29,183,94.242,183,0,142.032,0,91.5,42.194,0,94.242,0Z" transform="matrix(0.695, 0.719, -0.719, 0.695, 151.986, 163.728)" fill="url(#a)"/><path d="M245.011,289.677c-32.772,1.018-87.883-2.565-102.572-2.565-79.074,0-107.2-44.582-136.7-96.839S68.223,17.471,107.479.927c12.623-5.32,51.289,12.864,61.652,38.9,7.789,19.57,9.42,76.357,37.824,89.046,31.683,14.155,56.537,18.613,73.732,25.281,43.859,5.9,77.087,34.04,77.087,67.858,0,38.107-42.194,69-94.243,69A128.266,128.266,0,0,1,245.011,289.677Z" transform="translate(153.135 93.976)" fill="url(#a)"/><path d="M94.242,0c52.048,0,94.242,17.908,94.242,40S146.29,80,94.242,80,0,62.09,0,40,42.194,0,94.242,0Z" transform="translate(215.705 142.44) rotate(69)" fill="#fff" opacity="0.349"/></g><line transform="translate(4207.324 941.815)" fill="none" stroke="#fdd93b" stroke-linecap="round" stroke-linejoin="round" stroke-width="20" opacity="0.3"/></g></svg>